<?xml version="1.0"?>
<svg xmlns="http://www.w3.org/2000/svg" xmlns:xlink="http://www.w3.org/1999/xlink" xmlns:svgjs="http://svgjs.com/svgjs" version="1.1" width="512" height="512" x="0" y="0" viewBox="0 0 32 32" style="enable-background:new 0 0 512 512" xml:space="preserve" class=""><g transform="matrix(0.9499999999999998,0,0,0.9499999999999998,0.8000000000000025,0.8000000000000025)"><path xmlns="http://www.w3.org/2000/svg" d="m26 32h-20c-3.314 0-6-2.686-6-6v-20c0-3.314 2.686-6 6-6h20c3.314 0 6 2.686 6 6v20c0 3.314-2.686 6-6 6z" fill="#ebb69e" data-original="#ffe6e2" style="" class=""/><path xmlns="http://www.w3.org/2000/svg" d="m26 32h-20c-3.314 0-6-2.686-6-6v-20c0-3.314 2.686-6 6-6h20c3.314 0 6 2.686 6 6v20c0 3.314-2.686 6-6 6z" fill="#ebb69e" data-original="#ffe6e2" style="" class=""/><path xmlns="http://www.w3.org/2000/svg" d="m19.667 15.333c-2.389 0-4.333 1.944-4.333 4.333s1.943 4.334 4.333 4.334 4.333-1.944 4.333-4.333-1.944-4.334-4.333-4.334zm1.804 5.196c.26.26.26.682 0 .943-.26.26-.682.26-.943 0l-.862-.862-.862.862c-.26.26-.682.26-.943 0-.26-.26-.26-.682 0-.943l.862-.862-.862-.862c-.26-.26-.26-.682 0-.943s.682-.26.943 0l.862.862.862-.862c.26-.26.682-.26.943 0s.26.682 0 .943l-.862.862z" fill="#fd907e" data-original="#fd907e" style="" class=""/><g xmlns="http://www.w3.org/2000/svg" fill="#fc573b"><path d="m8.667 24c-.369 0-.667-.298-.667-.667v-4.667c0-.367.298-.666.667-.666s.667.299.667.667v4.667c-.001.368-.299.666-.667.666z" fill="#ee6425" data-original="#fc573b" style="" class=""/><path d="m12.667 24c-.369 0-.667-.298-.667-.667v-7.333c0-.368.299-.667.667-.667s.667.299.667.667v7.333c-.001.369-.299.667-.667.667z" fill="#ee6425" data-original="#fc573b" style="" class=""/><path d="m17.333 12v2.507c-.487.213-.933.5-1.333.84v-3.347c0-.367.3-.667.667-.667s.666.3.666.667z" fill="#ee6425" data-original="#fc573b" style="" class=""/><path d="m21.333 8.667v5.58c-.427-.127-.873-.213-1.333-.24v-5.34c0-.367.3-.667.667-.667.366 0 .666.3.666.667z" fill="#ee6425" data-original="#fc573b" style="" class=""/></g></g></svg>
