<svg xmlns="http://www.w3.org/2000/svg">

    <!-- pencil edit-->
    <path id="pencil" d="M290.74 93.24l128.02 128.02-277.99 277.99-114.14 12.6C11.35 513.54-1.56 500.62.14 485.34l12.7-114.22 277.9-277.88zm207.2-19.06l-60.11-60.11c-18.75-18.75-49.16-18.75-67.91 0l-56.55 56.55 128.02 128.02 56.55-56.55c18.75-18.76 18.75-49.16 0-67.91z"></path>

    <!-- star for review -->
    <path id="star" d="M12,17.27,18.18,21l-1.64-7.03L22,9.24l-7.19-.61L12,2,9.19,8.63,2,9.24l5.46,4.73L5.82,21Z" transform="translate(-2 -2)"></path>

    <!-- product icon for menu -->
    <path id="productIcon" d="M20,6H17.82A2.993,2.993,0,0,0,12.5,3.35l-.5.67-.5-.68A2.994,2.994,0,0,0,6.18,6H4A1.985,1.985,0,0,0,2.01,8L2,19a1.993,1.993,0,0,0,2,2H20a1.993,1.993,0,0,0,2-2V8A1.993,1.993,0,0,0,20,6ZM15,4a1,1,0,1,1-1,1A1,1,0,0,1,15,4ZM9,4A1,1,0,1,1,8,5,1,1,0,0,1,9,4ZM20,19H4V17H20Zm0-5H4V8H9.08L7,10.83,8.62,12,11,8.76,12,7.4l1,1.36L15.38,12,17,10.83,14.92,8H20Z" transform="translate(-2 -2)"></path>

    <!-- cart symbol for order used in menu menu -->
    <path id="order" d="M7,18a2,2,0,1,0,2,2A2,2,0,0,0,7,18ZM1,2V4H3l3.6,7.59L5.25,14.04A1.933,1.933,0,0,0,5,15a2.006,2.006,0,0,0,2,2H19V15H7.42a.248.248,0,0,1-.25-.25l.03-.12L8.1,13h7.45a1.991,1.991,0,0,0,1.75-1.03l3.58-6.49A.977.977,0,0,0,21,5a1,1,0,0,0-1-1H5.21L4.27,2H1ZM17,18a2,2,0,1,0,2,2A2,2,0,0,0,17,18Z" transform="translate(-1 -2)"></path>

    <!-- categories for menu -->
    <g id="categories" data-name="Group 320" transform="translate(2 0.734)">
        <g id="Group_321" data-name="Group 321" transform="translate(-110 -55)">
            <path id="" d="M3,9H1V20a1.993,1.993,0,0,0,2,2H17a1.993,1.993,0,0,0,2-2H3ZM18,5V3a1.993,1.993,0,0,0-2-2H12a1.993,1.993,0,0,0-2,2V5H5V16a1.993,1.993,0,0,0,2,2H21a1.993,1.993,0,0,0,2-2V5ZM12,3h4V5H12Zm0,12V8l5.5,3Z" transform="translate(107 53.266)"></path>
        </g>
    </g>

    <!-- report for menu -->
    <path id="report" d="M12,2A10,10,0,1,0,22,12,10,10,0,0,0,12,2Zm1,15H11V11h2Zm0-8H11V7h2Z" transform="translate(-2 -2)"></path>

    <!-- message for menu -->
    <path id="message" data-name="Union 11" d="M11.875,15.438H5.938l2.171-2.376h7.329a1.187,1.187,0,0,0,1.187-1.187V4.751h1.187A1.187,1.187,0,0,1,19,5.938v8.312a1.188,1.188,0,0,1-1.187,1.188H15.438V19ZM3.562,10.687H1.187A1.188,1.188,0,0,1,0,9.5V1.187A1.188,1.188,0,0,1,1.187,0H13.062a1.188,1.188,0,0,1,1.187,1.187V9.5a1.187,1.187,0,0,1-1.187,1.187H7.125L3.562,14.249Z"></path>

    <!-- profile for menu -->
    <path id="profile" d="M18.147,12.159a7.21,7.21,0,0,0,.065-.907,7.211,7.211,0,0,0-.065-.907L20.1,8.819a.467.467,0,0,0,.111-.592l-1.85-3.2a.465.465,0,0,0-.564-.2l-2.3.925a6.76,6.76,0,0,0-1.564-.907l-.352-2.452A.451.451,0,0,0,13.123,2h-3.7a.451.451,0,0,0-.453.389L8.617,4.84a7.108,7.108,0,0,0-1.564.907l-2.3-.925a.451.451,0,0,0-.564.2l-1.85,3.2a.456.456,0,0,0,.111.592L4.4,10.346a7.338,7.338,0,0,0-.065.907,7.338,7.338,0,0,0,.065.907L2.446,13.686a.467.467,0,0,0-.111.592l1.85,3.2a.465.465,0,0,0,.564.2l2.3-.925a6.76,6.76,0,0,0,1.564.907l.352,2.452a.451.451,0,0,0,.453.389h3.7a.451.451,0,0,0,.453-.389l.352-2.452a7.109,7.109,0,0,0,1.564-.907l2.3.925a.451.451,0,0,0,.564-.2l1.85-3.2a.467.467,0,0,0-.111-.592Zm-6.875,2.332a3.238,3.238,0,1,1,3.238-3.238A3.242,3.242,0,0,1,11.273,14.491Z" transform="translate(-2.271 -2)"></path>

    <!-- logout for menu -->
    <path id="logout" d="M12.444,3H10.556v9.444h1.889Zm4.562,2.049L15.665,6.391A6.536,6.536,0,0,1,18.111,11.5,6.611,6.611,0,1,1,7.326,6.381L5.994,5.049A8.492,8.492,0,1,0,20,11.5,8.436,8.436,0,0,0,17.006,5.049Z" transform="translate(-3 -3)"></path>

    <!-- add product -->
    <path id="addProduct" d="M16,8H14v3H11v2h3v3h2V13h3V11H16ZM15,3a9,9,0,1,0,9,9A9.014,9.014,0,0,0,15,3Zm0,16a7,7,0,1,1,7-7A7.008,7.008,0,0,1,15,19Z" transform="translate(-6 -3)"></path>

    <!-- Visit shop icon -->
    <path id="visitShop" d="M20,4H4V6H20Zm1,10V12L20,7H4L3,12v2H4v6H14V14h4v6h2V14Zm-9,4H6V14h6Z" transform="translate(-3 -4)"></path>

    <!-- Chip delete -->
    <g id="chipDelete" data-name="Icon / Cancel / Filled" opacity="0.5">
        <rect id="Box"></rect>
        <path id="Icon_Cancel_Dark" data-name="Icon / Cancel / Dark" d="M151.389-13.6l-.989.989-2.511-2.511-2.511,2.511-.989-.989,2.511-2.511-2.511-2.511.989-.989,2.511,2.511,2.511-2.511.989.989-2.511,2.511Zm-3.5-9.511a7,7,0,0,0-7,7,7,7,0,0,0,7,7,7,7,0,0,0,7-7,7,7,0,0,0-7-7Z" transform="translate(-140.889 23.111)" fill-rule="evenodd"></path>
    </g>

    <!-- times to close modal -->
    <path id="times" d="M19,6.41,17.59,5,12,10.59,6.41,5,5,6.41,10.59,12,5,17.59,6.41,19,12,13.41,17.59,19,19,17.59,13.41,12Z" transform="translate(-5 -5)"></path>

    <!-- down arrow -->
    <path id="arrowDown" d="M19.459,0,11.025,8.416,2.591,0,0,2.591,11.025,13.616,22.05,2.591Z"></path>

    <!-- map marker -->
    <path id="mapPlace" d="M12,2A7,7,0,0,0,5,9c0,5.25,7,13,7,13s7-7.75,7-13A7,7,0,0,0,12,2Zm0,9.5A2.5,2.5,0,1,1,14.5,9,2.5,2.5,0,0,1,12,11.5Z" transform="translate(-5 -2)"></path>

    <!-- copy content -->
    <path id="copy" d="M16,1H4A2.006,2.006,0,0,0,2,3V17H4V3H16Zm3,4H8A2.006,2.006,0,0,0,6,7V21a2.006,2.006,0,0,0,2,2H19a2.006,2.006,0,0,0,2-2V7A2.006,2.006,0,0,0,19,5Zm0,16H8V7H19Z" transform="translate(-2 -1)"></path>

    <!-- email -->
    <path id="email" d="M16.457,4H3.606a1.6,1.6,0,0,0-1.6,1.606L2,15.244A1.611,1.611,0,0,0,3.606,16.85h12.85a1.611,1.611,0,0,0,1.606-1.606V5.606A1.611,1.611,0,0,0,16.457,4Zm0,3.213-6.425,4.016L3.606,7.213V5.606l6.425,4.016,6.425-4.016Z" fill="rgba(0,0,0,0.6)" transform="translate(-2 -4)"></path>

    <!-- phone -->
    <path id="phone" d="M5.694,8.8A11.276,11.276,0,0,0,10.6,13.7l1.638-1.638A.74.74,0,0,1,13,11.887a8.491,8.491,0,0,0,2.657.424.747.747,0,0,1,.744.744v2.6a.747.747,0,0,1-.744.744A12.653,12.653,0,0,1,3,3.744.747.747,0,0,1,3.744,3H6.349a.747.747,0,0,1,.744.744A8.456,8.456,0,0,0,7.518,6.4a.747.747,0,0,1-.186.759Z" transform="translate(-3 -3)"></path>

    <!-- turn off visibility -->
    <path id="visibilityOff" d="M12,7a5,5,0,0,1,5,5,4.853,4.853,0,0,1-.36,1.83l2.92,2.92A11.817,11.817,0,0,0,22.99,12a11.827,11.827,0,0,0-11-7.5,11.645,11.645,0,0,0-3.98.7l2.16,2.16A4.853,4.853,0,0,1,12,7ZM2,4.27,4.28,6.55l.46.46A11.8,11.8,0,0,0,1,12a11.822,11.822,0,0,0,15.38,6.66l.42.42L19.73,22,21,20.73,3.27,3ZM7.53,9.8l1.55,1.55A2.821,2.821,0,0,0,9,12a3,3,0,0,0,3,3,2.821,2.821,0,0,0,.65-.08l1.55,1.55A4.967,4.967,0,0,1,7.53,9.8Zm4.31-.78,3.15,3.15.02-.16a3,3,0,0,0-3-3Z" transform="translate(-1 -3)"></path>

    <!-- delete trash -->
    <path id="delete" d="M6.194,22.111A2.4,2.4,0,0,0,8.583,24.5h9.556a2.4,2.4,0,0,0,2.389-2.389V7.778H6.194Zm2.938-8.5,1.684-1.684,2.544,2.532,2.532-2.532,1.684,1.684-2.532,2.532,2.532,2.532-1.684,1.684-2.532-2.532-2.532,2.532L9.145,18.671l2.532-2.532Zm8.409-9.412L16.347,3H10.375L9.181,4.194H5V6.583H21.722V4.194Z" transform="translate(-5 -3)" fill="rgba(0,0,0,0.6)"></path>

    <!-- cheveron right -->
    <path id="rightArrow" d="M10,6,8.59,7.41,13.17,12,8.59,16.59,10,18l6-6Z" transform="translate(-8.59 -6)"></path>
    
    <!-- cheveron left -->
    <path id="leftArrow" d="M15.41,16.09,10.83,11.5l4.58-4.59L14,5.5l-6,6,6,6Z" transform="translate(-8 -5.5)"></path>

    <!-- keyboard backspace -->
    <path id="backSpace" d="M30.512,13.642H8.854l5.472-5.487L12.171,6,3,15.171l9.171,9.171,2.155-2.155L8.854,16.7H30.512Z" transform="translate(-3 -6)" fill="#404040"></path>

    <!-- camera/photo-upload -->
    <path id="camera" d="M3,4V1H5V4H8V6H5V9H3V6H0V4Zm3,6V7H9V4h7l1.83,2H21a2.006,2.006,0,0,1,2,2V20a2.006,2.006,0,0,1-2,2H5a2.006,2.006,0,0,1-2-2V10Zm7,9a5,5,0,1,0-5-5A5,5,0,0,0,13,19ZM9.8,14A3.2,3.2,0,1,0,13,10.8,3.2,3.2,0,0,0,9.8,14Z" transform="translate(0 -1)"></path>

    <!-- vertical ellipsis -->
    <path id="verticalElipsis" d="M12,8a2,2,0,1,0-2-2A2.006,2.006,0,0,0,12,8Zm0,2a2,2,0,1,0,2,2A2.006,2.006,0,0,0,12,10Zm0,6a2,2,0,1,0,2,2A2.006,2.006,0,0,0,12,16Z" transform="translate(-10 -4)"></path>

    <!-- globe -->
    <path id="globe" d="M248 8C111.03 8 0 119.03 0 256s111.03 248 248 248 248-111.03 248-248S384.97 8 248 8zm160 215.5v6.93c0 5.87-3.32 11.24-8.57 13.86l-15.39 7.7a15.485 15.485 0 0 1-15.53-.97l-18.21-12.14a15.52 15.52 0 0 0-13.5-1.81l-2.65.88c-9.7 3.23-13.66 14.79-7.99 23.3l13.24 19.86c2.87 4.31 7.71 6.9 12.89 6.9h8.21c8.56 0 15.5 6.94 15.5 15.5v11.34c0 3.35-1.09 6.62-3.1 9.3l-18.74 24.98c-1.42 1.9-2.39 4.1-2.83 6.43l-4.3 22.83c-.62 3.29-2.29 6.29-4.76 8.56a159.608 159.608 0 0 0-25 29.16l-13.03 19.55a27.756 27.756 0 0 1-23.09 12.36c-10.51 0-20.12-5.94-24.82-15.34a78.902 78.902 0 0 1-8.33-35.29V367.5c0-8.56-6.94-15.5-15.5-15.5h-25.88c-14.49 0-28.38-5.76-38.63-16a54.659 54.659 0 0 1-16-38.63v-14.06c0-17.19 8.1-33.38 21.85-43.7l27.58-20.69a54.663 54.663 0 0 1 32.78-10.93h.89c8.48 0 16.85 1.97 24.43 5.77l14.72 7.36c3.68 1.84 7.93 2.14 11.83.84l47.31-15.77c6.33-2.11 10.6-8.03 10.6-14.7 0-8.56-6.94-15.5-15.5-15.5h-10.09c-4.11 0-8.05-1.63-10.96-4.54l-6.92-6.92a15.493 15.493 0 0 0-10.96-4.54H199.5c-8.56 0-15.5-6.94-15.5-15.5v-4.4c0-7.11 4.84-13.31 11.74-15.04l14.45-3.61c3.74-.94 7-3.23 9.14-6.44l8.08-12.11c2.87-4.31 7.71-6.9 12.89-6.9h24.21c8.56 0 15.5-6.94 15.5-15.5v-21.7C359.23 71.63 422.86 131.02 441.93 208H423.5c-8.56 0-15.5 6.94-15.5 15.5z"></path>

    <!-- home icon -->
    <path id="homeIcon" d="M11.882,24V16.588h4.941V24H23V14.118h3.706L14.353,3,2,14.118H5.706V24Z" transform="translate(-2 -3)"></path>

    <!-- facebook -->
    <path id="facebook" data-name="Path 38" d="M84.744,14V7.622h2.178l.311-2.489H84.744V3.578c0-.7.233-1.244,1.244-1.244h1.322V.078C87,.078,86.222,0,85.367,0a3,3,0,0,0-3.189,3.267V5.133H80V7.622h2.178V14Z" transform="translate(-80)"></path>

    <!-- twitter -->
    <path id="twitter" data-name="Path 39" d="M42.433,13.356A8.094,8.094,0,0,0,50.6,5.189V4.8A6.322,6.322,0,0,0,52,3.322a6.457,6.457,0,0,1-1.633.467,3.026,3.026,0,0,0,1.244-1.556,7.134,7.134,0,0,1-1.789.7A2.778,2.778,0,0,0,47.722,2a2.922,2.922,0,0,0-2.878,2.878,1.516,1.516,0,0,0,.078.622,8.041,8.041,0,0,1-5.911-3.033,2.979,2.979,0,0,0-.389,1.478,3.09,3.09,0,0,0,1.244,2.411,2.622,2.622,0,0,1-1.322-.389h0a2.843,2.843,0,0,0,2.333,2.8,2.4,2.4,0,0,1-.778.078,1.324,1.324,0,0,1-.544-.078,2.947,2.947,0,0,0,2.722,2.022A5.872,5.872,0,0,1,38.7,12.033a2.153,2.153,0,0,1-.7-.078,7.341,7.341,0,0,0,4.433,1.4" transform="translate(-38 -2)"></path>

    <!-- instagram -->
    <path id="instagram" data-name="Path 40" d="M7,1.244a21.463,21.463,0,0,1,2.8.078,3.607,3.607,0,0,1,1.322.233,2.732,2.732,0,0,1,1.322,1.322A3.607,3.607,0,0,1,12.678,4.2c0,.7.078.933.078,2.8a21.463,21.463,0,0,1-.078,2.8,3.607,3.607,0,0,1-.233,1.322,2.732,2.732,0,0,1-1.322,1.322,3.607,3.607,0,0,1-1.322.233c-.7,0-.933.078-2.8.078a21.463,21.463,0,0,1-2.8-.078,3.607,3.607,0,0,1-1.322-.233,2.732,2.732,0,0,1-1.322-1.322A3.607,3.607,0,0,1,1.322,9.8c0-.7-.078-.933-.078-2.8a21.463,21.463,0,0,1,.078-2.8,3.607,3.607,0,0,1,.233-1.322A2.793,2.793,0,0,1,2.1,2.1a1.315,1.315,0,0,1,.778-.544A3.607,3.607,0,0,1,4.2,1.322,21.463,21.463,0,0,1,7,1.244M7,0A22.981,22.981,0,0,0,4.122.078,4.8,4.8,0,0,0,2.411.389a3.045,3.045,0,0,0-1.244.778A3.045,3.045,0,0,0,.389,2.411,3.544,3.544,0,0,0,.078,4.122,22.981,22.981,0,0,0,0,7,22.981,22.981,0,0,0,.078,9.878a4.8,4.8,0,0,0,.311,1.711,3.045,3.045,0,0,0,.778,1.244,3.045,3.045,0,0,0,1.244.778,4.8,4.8,0,0,0,1.711.311A22.981,22.981,0,0,0,7,14a22.981,22.981,0,0,0,2.878-.078,4.8,4.8,0,0,0,1.711-.311,3.263,3.263,0,0,0,2.022-2.022,4.8,4.8,0,0,0,.311-1.711C13.922,9.1,14,8.867,14,7a22.981,22.981,0,0,0-.078-2.878,4.8,4.8,0,0,0-.311-1.711,3.045,3.045,0,0,0-.778-1.244A3.045,3.045,0,0,0,11.589.389,4.8,4.8,0,0,0,9.878.078,22.981,22.981,0,0,0,7,0M7,3.422A3.52,3.52,0,0,0,3.422,7,3.578,3.578,0,1,0,7,3.422M7,9.333A2.292,2.292,0,0,1,4.667,7,2.292,2.292,0,0,1,7,4.667,2.292,2.292,0,0,1,9.333,7,2.292,2.292,0,0,1,7,9.333m3.733-6.922a.856.856,0,1,0,.856.856.863.863,0,0,0-.856-.856"></path>

    <!-- up-arrow -->
    <path id="upArrow" data-name="Path 10" d="M8,0,6.545,1.455l5.506,5.506H0V9.039H12.052L6.545,14.545,8,16l8-8Z" transform="translate(0 16) rotate(-90)" fill="#ee6425"></path>

    <path id="topArrow" d="M34.9 289.5l-22.2-22.2c-9.4-9.4-9.4-24.6 0-33.9L207 39c9.4-9.4 24.6-9.4 33.9 0l194.3 194.3c9.4 9.4 9.4 24.6 0 33.9L413 289.4c-9.5 9.5-25 9.3-34.3-.4L264 168.6V456c0 13.3-10.7 24-24 24h-32c-13.3 0-24-10.7-24-24V168.6L69.2 289.1c-9.3 9.8-24.8 10-34.3.4z"></path>

    <!-- filter -->
    <path id="filter" d="M487.976 0H24.028C2.71 0-8.047 25.866 7.058 40.971L192 225.941V432c0 7.831 3.821 15.17 10.237 19.662l80 55.98C298.02 518.69 320 507.493 320 487.98V225.941l184.947-184.97C520.021 25.896 509.338 0 487.976 0z"></path>

    <!-- caret down -->
    <path id="caretDown" d="M31.3 192h257.3c17.8 0 26.7 21.5 14.1 34.1L174.1 354.8c-7.8 7.8-20.5 7.8-28.3 0L17.2 226.1C4.6 213.5 13.5 192 31.3 192z"></path>

    <!-- heart -->
    <path id="heart" d="M10.174,18,8.989,16.921C4.779,13.1,2,10.586,2,7.5A4.452,4.452,0,0,1,6.5,3a4.9,4.9,0,0,1,3.678,1.708A4.9,4.9,0,0,1,13.853,3a4.452,4.452,0,0,1,4.5,4.5c0,3.09-2.779,5.608-6.989,9.433Z" transform="translate(-2 -3)"></path>
    
    <!-- person -->
    <path id="person" d="M12,12A4,4,0,1,0,8,8,4,4,0,0,0,12,12Zm0,2c-2.67,0-8,1.34-8,4v2H20V18C20,15.34,14.67,14,12,14Z" transform="translate(-4 -4)"></path>

    <!-- bookmark -->
    <path id="bookmark" d="M0 512V48C0 21.49 21.49 0 48 0h288c26.51 0 48 21.49 48 48v464L192 400 0 512z"></path>

    <!-- my orders -->
    <path id="myOrders" d="M16.1,2.638H12.68a2.447,2.447,0,0,0-4.619,0H4.638A1.643,1.643,0,0,0,3,4.276V15.74a1.643,1.643,0,0,0,1.638,1.638H16.1A1.643,1.643,0,0,0,17.74,15.74V4.276A1.643,1.643,0,0,0,16.1,2.638Zm-5.732,0a.819.819,0,1,1-.819.819A.821.821,0,0,1,10.37,2.638ZM8.732,14.1,5.457,10.827,6.611,9.672l2.121,2.113,5.4-5.4,1.155,1.163Z" transform="translate(-3 -1)"></path>

    <!-- store -->
    <path id="store" d="M20,4H4V6H20Zm1,10V12L20,7H4L3,12v2H4v6H14V14h4v6h2V14Zm-9,4H6V14h6Z" transform="translate(-3 -4)"></path>

    <!-- map maker -->
    <path id="mapMaker" d="M10.937,2A5.933,5.933,0,0,0,5,7.937c0,4.453,5.937,11.026,5.937,11.026s5.937-6.573,5.937-11.026A5.933,5.933,0,0,0,10.937,2Zm0,8.057a2.12,2.12,0,1,1,2.12-2.12A2.121,2.121,0,0,1,10.937,10.057Z" transform="translate(-5 -2)"></path>

    <!-- bycicle -->
    <path id="bicycle" d="M15.5,5.5a2,2,0,1,0-2-2A2.006,2.006,0,0,0,15.5,5.5ZM5,12A5,5,0,1,0,5,22,5,5,0,1,0,5,12Zm0,8.5a3.5,3.5,0,1,1,0-7,3.5,3.5,0,1,1,0,7Zm5.8-10,2.4-2.4.8.8A7.006,7.006,0,0,0,19.1,11V9a4.968,4.968,0,0,1-3.6-1.5L13.6,5.6A2.452,2.452,0,0,0,12,5a1.678,1.678,0,0,0-1.4.6L7.8,8.4a1.974,1.974,0,0,0-.6,1.4,1.678,1.678,0,0,0,.6,1.4L11,14v5h2V12.8ZM19,12a5,5,0,1,0,5,5A4.951,4.951,0,0,0,19,12Zm0,8.5A3.5,3.5,0,1,1,22.5,17,3.543,3.543,0,0,1,19,20.5Z" transform="translate(0 -1.5)"></path>

    <!-- wallet -->
    <path id="wallet" d="M16.52,14.267v.751a1.507,1.507,0,0,1-1.5,1.5H4.5a1.5,1.5,0,0,1-1.5-1.5V4.5A1.5,1.5,0,0,1,4.5,3H15.018a1.507,1.507,0,0,1,1.5,1.5v.751H9.76a1.5,1.5,0,0,0-1.5,1.5v6.009a1.5,1.5,0,0,0,1.5,1.5Zm-6.76-1.5h7.511V6.756H9.76Zm3-1.878A1.127,1.127,0,1,1,13.891,9.76,1.125,1.125,0,0,1,12.765,10.887Z" transform="translate(-3 -3)"></path>

    <!-- close search modal arrow left -->
    <path id="modalArrowLeft" d="M30.512,13.642H8.854l5.472-5.487L12.171,6,3,15.171l9.171,9.171,2.155-2.155L8.854,16.7H30.512Z" transform="translate(-3 -6)"></path>


    <!-- times circle -->
    <path id="timesCircle" d="M256 8C119 8 8 119 8 256s111 248 248 248 248-111 248-248S393 8 256 8zm121.6 313.1c4.7 4.7 4.7 12.3 0 17L338 377.6c-4.7 4.7-12.3 4.7-17 0L256 312l-65.1 65.6c-4.7 4.7-12.3 4.7-17 0L134.4 338c-4.7-4.7-4.7-12.3 0-17l65.6-65-65.6-65.1c-4.7-4.7-4.7-12.3 0-17l39.6-39.6c4.7-4.7 12.3-4.7 17 0l65 65.7 65.1-65.6c4.7-4.7 12.3-4.7 17 0l39.6 39.6c4.7 4.7 4.7 12.3 0 17L312 256l65.6 65.1z"></path>

    <!-- thumbs up -->
    <path id="thumbsUp" d="M104 224H24c-13.255 0-24 10.745-24 24v240c0 13.255 10.745 24 24 24h80c13.255 0 24-10.745 24-24V248c0-13.255-10.745-24-24-24zM64 472c-13.255 0-24-10.745-24-24s10.745-24 24-24 24 10.745 24 24-10.745 24-24 24zM384 81.452c0 42.416-25.97 66.208-33.277 94.548h101.723c33.397 0 59.397 27.746 59.553 58.098.084 17.938-7.546 37.249-19.439 49.197l-.11.11c9.836 23.337 8.237 56.037-9.308 79.469 8.681 25.895-.069 57.704-16.382 74.757 4.298 17.598 2.244 32.575-6.148 44.632C440.202 511.587 389.616 512 346.839 512l-2.845-.001c-48.287-.017-87.806-17.598-119.56-31.725-15.957-7.099-36.821-15.887-52.651-16.178-6.54-.12-11.783-5.457-11.783-11.998v-213.77c0-3.2 1.282-6.271 3.558-8.521 39.614-39.144 56.648-80.587 89.117-113.111 14.804-14.832 20.188-37.236 25.393-58.902C282.515 39.293 291.817 0 312 0c24 0 72 8 72 81.452z"></path>

    <!-- shield -->
    <path id="shield" d="M466.5 83.7l-192-80a48.15 48.15 0 0 0-36.9 0l-192 80C27.7 91.1 16 108.6 16 128c0 198.5 114.5 335.7 221.5 380.3 11.8 4.9 25.1 4.9 36.9 0C360.1 472.6 496 349.3 496 128c0-19.4-11.7-36.9-29.5-44.3zM256.1 446.3l-.1-381 175.9 73.3c-3.3 151.4-82.1 261.1-175.8 307.7z"></path>

    <!-- search icon -->
    <path id="searchIcon" d="M505 442.7L405.3 343c-4.5-4.5-10.6-7-17-7H372c27.6-35.3 44-79.7 44-128C416 93.1 322.9 0 208 0S0 93.1 0 208s93.1 208 208 208c48.3 0 92.7-16.4 128-44v16.3c0 6.4 2.5 12.5 7 17l99.7 99.7c9.4 9.4 24.6 9.4 33.9 0l28.3-28.3c9.4-9.4 9.4-24.6.1-34zM208 336c-70.7 0-128-57.2-128-128 0-70.7 57.2-128 128-128 70.7 0 128 57.2 128 128 0 70.7-57.2 128-128 128z"></path>

    <!-- address card -->
    <path id="addressCard" d="M528 32H48C21.5 32 0 53.5 0 80v352c0 26.5 21.5 48 48 48h480c26.5 0 48-21.5 48-48V80c0-26.5-21.5-48-48-48zm-352 96c35.3 0 64 28.7 64 64s-28.7 64-64 64-64-28.7-64-64 28.7-64 64-64zm112 236.8c0 10.6-10 19.2-22.4 19.2H86.4C74 384 64 375.4 64 364.8v-19.2c0-31.8 30.1-57.6 67.2-57.6h5c12.3 5.1 25.7 8 39.8 8s27.6-2.9 39.8-8h5c37.1 0 67.2 25.8 67.2 57.6v19.2zM512 312c0 4.4-3.6 8-8 8H360c-4.4 0-8-3.6-8-8v-16c0-4.4 3.6-8 8-8h144c4.4 0 8 3.6 8 8v16zm0-64c0 4.4-3.6 8-8 8H360c-4.4 0-8-3.6-8-8v-16c0-4.4 3.6-8 8-8h144c4.4 0 8 3.6 8 8v16zm0-64c0 4.4-3.6 8-8 8H360c-4.4 0-8-3.6-8-8v-16c0-4.4 3.6-8 8-8h144c4.4 0 8 3.6 8 8v16z"></path>

    <!-- whatsappIcon -->
    <path id="whatsappIcon" d="M380.9 97.1C339 55.1 283.2 32 223.9 32c-122.4 0-222 99.6-222 222 0 39.1 10.2 77.3 29.6 111L0 480l117.7-30.9c32.4 17.7 68.9 27 106.1 27h.1c122.3 0 224.1-99.6 224.1-222 0-59.3-25.2-115-67.1-157zm-157 341.6c-33.2 0-65.7-8.9-94-25.7l-6.7-4-69.8 18.3L72 359.2l-4.4-7c-18.5-29.4-28.2-63.3-28.2-98.2 0-101.7 82.8-184.5 184.6-184.5 49.3 0 95.6 19.2 130.4 54.1 34.8 34.9 56.2 81.2 56.1 130.5 0 101.8-84.9 184.6-186.6 184.6zm101.2-138.2c-5.5-2.8-32.8-16.2-37.9-18-5.1-1.9-8.8-2.8-12.5 2.8-3.7 5.6-14.3 18-17.6 21.8-3.2 3.7-6.5 4.2-12 1.4-32.6-16.3-54-29.1-75.5-66-5.7-9.8 5.7-9.1 16.3-30.3 1.8-3.7.9-6.9-.5-9.7-1.4-2.8-12.5-30.1-17.1-41.2-4.5-10.8-9.1-9.3-12.5-9.5-3.2-.2-6.9-.2-10.6-.2-3.7 0-9.7 1.4-14.8 6.9-5.1 5.6-19.4 19-19.4 46.3 0 27.3 19.9 53.7 22.6 57.4 2.8 3.7 39.1 59.7 94.8 83.8 35.2 15.2 49 16.5 66.6 13.9 10.7-1.6 32.8-13.4 37.4-26.4 4.6-13 4.6-24.1 3.2-26.4-1.3-2.5-5-3.9-10.5-6.6z"></path>

    <!-- facebook-round icon -->
    <path id="facebookRoundIcon" d="M504 256C504 119 393 8 256 8S8 119 8 256c0 123.78 90.69 226.38 209.25 245V327.69h-63V256h63v-54.64c0-62.15 37-96.48 93.67-96.48 27.14 0 55.52 4.84 55.52 4.84v61h-31.28c-30.8 0-40.41 19.12-40.41 38.73V256h68.78l-11 71.69h-57.78V501C413.31 482.38 504 379.78 504 256z"></path>

    <!-- facebook-f icon -->
    <path id="facebookFIcon" d="M279.14 288l14.22-92.66h-88.91v-60.13c0-25.35 12.42-50.06 52.24-50.06h40.42V6.26S260.43 0 225.36 0c-73.22 0-121.08 44.38-121.08 124.72v70.62H22.89V288h81.39v224h100.17V288z"></path>

    <!-- twitter icon -->
    <path id="twitterIcon" d="M459.37 151.716c.325 4.548.325 9.097.325 13.645 0 138.72-105.583 298.558-298.558 298.558-59.452 0-114.68-17.219-161.137-47.106 8.447.974 16.568 1.299 25.34 1.299 49.055 0 94.213-16.568 130.274-44.832-46.132-.975-84.792-31.188-98.112-72.772 6.498.974 12.995 1.624 19.818 1.624 9.421 0 18.843-1.3 27.614-3.573-48.081-9.747-84.143-51.98-84.143-102.985v-1.299c13.969 7.797 30.214 12.67 47.431 13.319-28.264-18.843-46.781-51.005-46.781-87.391 0-19.492 5.197-37.36 14.294-52.954 51.655 63.675 129.3 105.258 216.365 109.807-1.624-7.797-2.599-15.918-2.599-24.04 0-57.828 46.782-104.934 104.934-104.934 30.213 0 57.502 12.67 76.67 33.137 23.715-4.548 46.456-13.32 66.599-25.34-7.798 24.366-24.366 44.833-46.132 57.827 21.117-2.273 41.584-8.122 60.426-16.243-14.292 20.791-32.161 39.308-52.628 54.253z"></path>

    <!-- copy icon -->
    <path id="copyIcon" d="M433.941 65.941l-51.882-51.882A48 48 0 0 0 348.118 0H176c-26.51 0-48 21.49-48 48v48H48c-26.51 0-48 21.49-48 48v320c0 26.51 21.49 48 48 48h224c26.51 0 48-21.49 48-48v-48h80c26.51 0 48-21.49 48-48V99.882a48 48 0 0 0-14.059-33.941zM266 464H54a6 6 0 0 1-6-6V150a6 6 0 0 1 6-6h74v224c0 26.51 21.49 48 48 48h96v42a6 6 0 0 1-6 6zm128-96H182a6 6 0 0 1-6-6V54a6 6 0 0 1 6-6h106v88c0 13.255 10.745 24 24 24h88v202a6 6 0 0 1-6 6zm6-256h-64V48h9.632c1.591 0 3.117.632 4.243 1.757l48.368 48.368a6 6 0 0 1 1.757 4.243V112z"></path>

    <!-- flag -->
    <path id="flag" d="M336.174 80c-49.132 0-93.305-32-161.913-32-31.301 0-58.303 6.482-80.721 15.168a48.04 48.04 0 0 0 2.142-20.727C93.067 19.575 74.167 1.594 51.201.104 23.242-1.71 0 20.431 0 48c0 17.764 9.657 33.262 24 41.562V496c0 8.837 7.163 16 16 16h16c8.837 0 16-7.163 16-16v-83.443C109.869 395.28 143.259 384 199.826 384c49.132 0 93.305 32 161.913 32 58.479 0 101.972-22.617 128.548-39.981C503.846 367.161 512 352.051 512 335.855V95.937c0-34.459-35.264-57.768-66.904-44.117C409.193 67.309 371.641 80 336.174 80zM464 336c-21.783 15.412-60.824 32-102.261 32-59.945 0-102.002-32-161.913-32-43.361 0-96.379 9.403-127.826 24V128c21.784-15.412 60.824-32 102.261-32 59.945 0 102.002 32 161.913 32 43.271 0 96.32-17.366 127.826-32v240z"></path>

    <!-- big checkbox -->
    <g id="bigCheckBox">
        <path d="m159.988281 318.582031c-3.988281 4.011719-9.429687 6.25-15.082031 6.25s-11.09375-2.238281-15.082031-6.25l-120.449219-120.46875c-12.5-12.5-12.5-32.769531 0-45.246093l15.082031-15.085938c12.503907-12.5 32.75-12.5 45.25 0l75.199219 75.203125 203.199219-203.203125c12.503906-12.5 32.769531-12.5 45.25 0l15.082031 15.085938c12.5 12.5 12.5 32.765624 0 45.246093zm0 0"></path>
    </g>

    <!-- advanced search -->
    <path id="advancedSearch"  d="M304 192v32c0 6.6-5.4 12-12 12h-56v56c0 6.6-5.4 12-12 12h-32c-6.6 0-12-5.4-12-12v-56h-56c-6.6 0-12-5.4-12-12v-32c0-6.6 5.4-12 12-12h56v-56c0-6.6 5.4-12 12-12h32c6.6 0 12 5.4 12 12v56h56c6.6 0 12 5.4 12 12zm201 284.7L476.7 505c-9.4 9.4-24.6 9.4-33.9 0L343 405.3c-4.5-4.5-7-10.6-7-17V372c-35.3 27.6-79.7 44-128 44C93.1 416 0 322.9 0 208S93.1 0 208 0s208 93.1 208 208c0 48.3-16.4 92.7-44 128h16.3c6.4 0 12.5 2.5 17 7l99.7 99.7c9.3 9.4 9.3 24.6 0 34zM344 208c0-75.2-60.8-136-136-136S72 132.8 72 208s60.8 136 136 136 136-60.8 136-136z"></path>

    <g id="followers">
        <path d="m197.573 188.379h-6.15c-35.801 0-65.108 28.328-66.681 63.748h139.512c-1.577-35.416-30.883-63.748-66.681-63.748z"></path>
        <path d="m428.513 0h-348.031c-44.366 0-80.461 39.036-80.461 87.019v219.758c0 47.982 36.095 87.018 80.461 87.018h104.492l56.241 107.171c2.591 4.937 7.706 8.03 13.282 8.03s10.691-3.093 13.282-8.03l56.241-107.171h104.492c44.366 0 80.461-39.036 80.461-87.018v-219.758c.001-47.983-36.094-87.019-80.46-87.019zm-161.193 282.128h-145.645c-14.888 0-27-12.112-27-27 0-40.134 24.565-74.635 59.448-89.266-10.311-10.331-16.695-24.581-16.695-40.295 0-31.468 25.601-57.07 57.069-57.07s57.069 25.602 57.069 57.07c0 15.714-6.385 29.964-16.695 40.295 34.883 14.63 59.448 49.131 59.448 89.265.001 14.888-12.111 27.001-26.999 27.001zm129.796-24.774c0 6.353-7.742 9.529-15.485 9.529-7.742 0-15.485-3.177-15.485-9.529v-101.053l-5.758 3.574c-1.786 1.191-3.573 1.588-4.963 1.588-5.758 0-9.729-6.155-9.729-12.309 0-4.169 1.787-8.14 5.758-10.522l26.206-15.882c1.589-.993 3.574-1.39 5.758-1.39 6.353 0 13.698 3.772 13.698 9.728z"></path><path d="m194.498 152.637c14.926 0 27.069-12.143 27.069-27.07 0-14.926-12.144-27.07-27.069-27.07s-27.069 12.144-27.069 27.07c-.001 14.927 12.143 27.07 27.069 27.07z"></path>
    </g>

    <path id="inviteBusiness" d="M176 216h160c8.84 0 16-7.16 16-16v-16c0-8.84-7.16-16-16-16H176c-8.84 0-16 7.16-16 16v16c0 8.84 7.16 16 16 16zm-16 80c0 8.84 7.16 16 16 16h160c8.84 0 16-7.16 16-16v-16c0-8.84-7.16-16-16-16H176c-8.84 0-16 7.16-16 16v16zm96 121.13c-16.42 0-32.84-5.06-46.86-15.19L0 250.86V464c0 26.51 21.49 48 48 48h416c26.51 0 48-21.49 48-48V250.86L302.86 401.94c-14.02 10.12-30.44 15.19-46.86 15.19zm237.61-254.18c-8.85-6.94-17.24-13.47-29.61-22.81V96c0-26.51-21.49-48-48-48h-77.55c-3.04-2.2-5.87-4.26-9.04-6.56C312.6 29.17 279.2-.35 256 0c-23.2-.35-56.59 29.17-73.41 41.44-3.17 2.3-6 4.36-9.04 6.56H96c-26.51 0-48 21.49-48 48v44.14c-12.37 9.33-20.76 15.87-29.61 22.81A47.995 47.995 0 0 0 0 200.72v10.65l96 69.35V96h320v184.72l96-69.35v-10.65c0-14.74-6.78-28.67-18.39-37.77z"></path>


    <path id="leftSlider" d="M31.7 239l136-136c9.4-9.4 24.6-9.4 33.9 0l22.6 22.6c9.4 9.4 9.4 24.6 0 33.9L127.9 256l96.4 96.4c9.4 9.4 9.4 24.6 0 33.9L201.7 409c-9.4 9.4-24.6 9.4-33.9 0l-136-136c-9.5-9.4-9.5-24.6-.1-34z"></path>


    <path id="rightSlider" d="M224.3 273l-136 136c-9.4 9.4-24.6 9.4-33.9 0l-22.6-22.6c-9.4-9.4-9.4-24.6 0-33.9l96.4-96.4-96.4-96.4c-9.4-9.4-9.4-24.6 0-33.9L54.3 103c9.4-9.4 24.6-9.4 33.9 0l136 136c9.5 9.4 9.5 24.6.1 34z"></path>

    <path id="verticalEllipsis" d="M96 242c7.7 0 14 6.3 14 14s-6.3 14-14 14-14-6.3-14-14 6.3-14 14-14m0-58c-39.8 0-72 32.2-72 72s32.2 72 72 72 72-32.2 72-72-32.2-72-72-72zm0-118c7.7 0 14 6.3 14 14s-6.3 14-14 14-14-6.3-14-14 6.3-14 14-14m0-58C56.2 8 24 40.2 24 80s32.2 72 72 72 72-32.2 72-72S135.8 8 96 8zm0 410c7.7 0 14 6.3 14 14s-6.3 14-14 14-14-6.3-14-14 6.3-14 14-14m0-58c-39.8 0-72 32.2-72 72s32.2 72 72 72 72-32.2 72-72-32.2-72-72-72z" class=""></path>

    <path id="gridLayout" d="M96 32H32C14.33 32 0 46.33 0 64v64c0 17.67 14.33 32 32 32h64c17.67 0 32-14.33 32-32V64c0-17.67-14.33-32-32-32zm0 160H32c-17.67 0-32 14.33-32 32v64c0 17.67 14.33 32 32 32h64c17.67 0 32-14.33 32-32v-64c0-17.67-14.33-32-32-32zm0 160H32c-17.67 0-32 14.33-32 32v64c0 17.67 14.33 32 32 32h64c17.67 0 32-14.33 32-32v-64c0-17.67-14.33-32-32-32zM288 32h-64c-17.67 0-32 14.33-32 32v64c0 17.67 14.33 32 32 32h64c17.67 0 32-14.33 32-32V64c0-17.67-14.33-32-32-32zm0 160h-64c-17.67 0-32 14.33-32 32v64c0 17.67 14.33 32 32 32h64c17.67 0 32-14.33 32-32v-64c0-17.67-14.33-32-32-32zm0 160h-64c-17.67 0-32 14.33-32 32v64c0 17.67 14.33 32 32 32h64c17.67 0 32-14.33 32-32v-64c0-17.67-14.33-32-32-32z"></path>

</svg>