<svg id="Capa_1" enable-background="new 0 0 512 512" height="512" viewBox="0 0 512 512" width="512" xmlns="http://www.w3.org/2000/svg" xmlns:xlink="http://www.w3.org/1999/xlink"><linearGradient id="lg1"><stop offset="0" stop-color="#ff3a33"/><stop offset="1" stop-color="#a03b5c"/></linearGradient><linearGradient id="SVGID_1_" gradientUnits="userSpaceOnUse" x1="74.981" x2="437.019" xlink:href="#lg1" y1="74.981" y2="437.019"/><linearGradient id="SVGID_2_" gradientUnits="userSpaceOnUse" x1="244.516" x2="267.484" y1="423.285" y2="423.285"><stop offset="0" stop-color="#d6f9fa"/><stop offset="1" stop-color="#adf2f5"/></linearGradient><linearGradient id="lg2"><stop offset="0" stop-color="#fce444"/><stop offset="1" stop-color="#fdc245"/></linearGradient><linearGradient id="SVGID_3_" gradientUnits="userSpaceOnUse" x1="221.548" x2="290.452" xlink:href="#lg2" y1="383.091" y2="383.091"/><linearGradient id="SVGID_4_" gradientUnits="userSpaceOnUse" x1="105.941" x2="406.059" xlink:href="#lg2" y1="210.064" y2="210.064"/><linearGradient id="SVGID_5_" gradientUnits="userSpaceOnUse" x1="209.298" x2="302.702" xlink:href="#lg1" y1="244.899" y2="244.899"/><g><circle cx="256" cy="256" fill="url(#SVGID_1_)" r="256"/><g><path d="m244.516 394.575h22.968v57.42h-22.968z" fill="url(#SVGID_2_)"/><path d="m429.027 198.58h22.968v22.968h-22.968z" fill="#fe5e49"/><path d="m404.4 106.299h22.968v22.968h-22.968z" fill="#fe5e49" transform="matrix(.866 -.5 .5 .866 -3.174 223.722)"/><g fill="#fe7f48"><path d="m84.817 105.978h22.968v22.968h-22.968z" transform="matrix(-.866 -.5 .5 -.866 120.97 267.338)"/><path d="m60.005 198.209h22.968v22.968h-22.968z" transform="matrix(-1 0 0 -1 142.978 419.386)"/><path d="m84.632 290.489h22.968v22.968h-22.968z" transform="matrix(-.866 .5 -.5 -.866 330.342 515.432)"/></g><path d="m404.214 290.81h22.968v22.968h-22.968z" fill="#fe5e49" transform="matrix(.866 .5 -.5 .866 206.841 -167.35)"/><path d="m256 360.122c-19.028 0-34.452 15.425-34.452 34.452 17.226 0 17.226 11.484 34.452 11.484s17.226-11.484 34.452-11.454c0-19.057-15.425-34.482-34.452-34.482z" fill="url(#SVGID_3_)"/><circle cx="256" cy="210.064" fill="url(#SVGID_4_)" r="150.059"/><path d="m279.734 221.548c0 13.087-10.647 23.734-23.734 23.734s-23.734-10.647-23.734-23.734h-22.968c0 25.752 20.95 46.702 46.702 46.702s46.702-20.95 46.702-46.702z" fill="url(#SVGID_5_)"/><path d="m209.298 164.127h22.968v34.452h-22.968z" fill="#554fb2"/><path d="m279.734 164.127h22.968v34.452h-22.968z" fill="#403c86"/></g></g></svg>